<svg xmlns="http://www.w3.org/2000/svg" width="928.32" height="115.88" viewBox="0 0 928.32 115.88"><title>logo</title><path d="M21.22,43.85a12.81,12.81,0,0,1-9.1-3.32,11,11,0,0,1-3.57-8.39,10.75,10.75,0,0,1,3.57-8.32,13,13,0,0,1,9.1-3.24,13,13,0,0,1,9.1,3.24,10.74,10.74,0,0,1,3.56,8.32,11,11,0,0,1-3.56,8.39A12.83,12.83,0,0,1,21.22,43.85ZM11.09,134.56V56H31.35v78.52Z" transform="translate(-8.55 -20.58)" fill="#02073e"/><path d="M52.56,134.56V56H70.45L72,69.34A27.54,27.54,0,0,1,82.56,58.26a31,31,0,0,1,16.23-4.12q14.56,0,22.64,9.18t8.07,26.92v44.32H109.24V92.13q0-10.12-4.12-15.51T92.3,71.24a18.06,18.06,0,0,0-14,6q-5.46,6-5.46,16.79v40.52Z" transform="translate(-8.55 -20.58)" fill="#02073e"/><path d="M152.46,134.56V73H141.69V56h10.77V46.86q0-14.25,7.2-20.27t19.55-6h8.71V37.83h-5.54q-5.24,0-7.45,2.06t-2.21,7V56h16.94V73H172.72v61.58Z" transform="translate(-8.55 -20.58)" fill="#02073e"/><path d="M240.16,136.46a40.46,40.46,0,0,1-20.5-5.22,38.41,38.41,0,0,1-14.41-14.49A42.33,42.33,0,0,1,200,95.3a41.9,41.9,0,0,1,5.38-21.45,39,39,0,0,1,14.49-14.49,42.55,42.55,0,0,1,40.84,0,38.48,38.48,0,0,1,14.41,14.49,42.46,42.46,0,0,1,5.3,21.45,42.44,42.44,0,0,1-5.3,21.45,38.26,38.26,0,0,1-14.49,14.49A40.59,40.59,0,0,1,240.16,136.46Zm0-17.57A18.7,18.7,0,0,0,253.93,113q5.86-5.92,5.86-17.65t-5.86-17.65a18.84,18.84,0,0,0-27.46,0q-5.79,5.94-5.78,17.65T226.47,113A18.45,18.45,0,0,0,240.16,118.89Z" transform="translate(-8.55 -20.58)" fill="#02073e"/><path d="M330.24,134.56q-12.35,0-19.79-6T303,107.17V73H289.55V56H303L305.38,35h17.89V56h21.22V73H323.27v34.35q0,5.7,2.46,7.84c1.63,1.42,4.45,2.14,8.47,2.14H344v17.25Z" transform="translate(-8.55 -20.58)" fill="#02073e"/><path d="M391.34,136.46q-14.71,0-22.71-9.18t-8-26.91V56h20.11V98.47q0,10.13,4.11,15.51t13,5.38a17.91,17.91,0,0,0,13.86-6q5.46-6,5.46-16.78V56h20.26v78.52H419.52l-1.58-13.3a27.66,27.66,0,0,1-10.53,11.09A30.76,30.76,0,0,1,391.34,136.46Z" transform="translate(-8.55 -20.58)" fill="#02073e"/><path d="M458.15,134.56V56H476l1.74,10.61a27.86,27.86,0,0,1,10.05-9.11,29.94,29.94,0,0,1,14.49-3.4q18.2,0,25.8,14.09A30.4,30.4,0,0,1,539.6,57.94a33.26,33.26,0,0,1,15.75-3.8q15.36,0,23.59,9.18t8.23,26.92v44.32H566.91V92.13q0-10.12-3.88-15.51t-11.95-5.38a16.3,16.3,0,0,0-13.22,6q-5,6-5,16.79v40.52H512.61V92.13q0-10.12-4-15.51t-12.19-5.38a16.14,16.14,0,0,0-13.06,6q-5,6-5,16.79v40.52Z" transform="translate(-8.55 -20.58)" fill="#02073e"/><path d="M644.16,136.46a40.46,40.46,0,0,1-20.5-5.22,38.41,38.41,0,0,1-14.41-14.49A42.44,42.44,0,0,1,604,95.3a42,42,0,0,1,5.38-21.45,39,39,0,0,1,14.49-14.49,42.55,42.55,0,0,1,40.84,0,38.48,38.48,0,0,1,14.41,14.49,42.46,42.46,0,0,1,5.3,21.45,42.44,42.44,0,0,1-5.3,21.45,38.26,38.26,0,0,1-14.49,14.49A40.59,40.59,0,0,1,644.16,136.46Zm0-17.57A18.74,18.74,0,0,0,657.94,113q5.85-5.92,5.85-17.65t-5.85-17.65a18.85,18.85,0,0,0-27.47,0q-5.79,5.94-5.78,17.65T630.47,113A18.45,18.45,0,0,0,644.16,118.89Z" transform="translate(-8.55 -20.58)" fill="#02073e"/><path d="M702.42,134.56V56h18.05l1.9,14.72a31.89,31.89,0,0,1,29-16.62V75.51h-5.7a32.27,32.27,0,0,0-11.88,2.06,16,16,0,0,0-8.15,7.12q-2.93,5.07-2.93,14.09v35.78Z" transform="translate(-8.55 -20.58)" fill="#02073e"/><path d="M776,43.85a12.83,12.83,0,0,1-9.1-3.32,11,11,0,0,1-3.56-8.39,10.74,10.74,0,0,1,3.56-8.32,14.4,14.4,0,0,1,18.2,0,10.75,10.75,0,0,1,3.57,8.32,11,11,0,0,1-3.57,8.39A12.83,12.83,0,0,1,776,43.85ZM765.9,134.56V56h20.26v78.52Z" transform="translate(-8.55 -20.58)" fill="#02073e"/><path d="M816.08,135.67a12.49,12.49,0,0,1-9.1-3.48,11.32,11.32,0,0,1-3.56-8.39,11.5,11.5,0,0,1,3.56-8.55,13.65,13.65,0,0,1,18.21,0,11.5,11.5,0,0,1,3.56,8.55,11.32,11.32,0,0,1-3.56,8.39A12.5,12.5,0,0,1,816.08,135.67Z" transform="translate(-8.55 -20.58)" fill="#02073e"/><path d="M856.29,43.85a12.83,12.83,0,0,1-9.1-3.32,11,11,0,0,1-3.56-8.39,10.78,10.78,0,0,1,3.56-8.32,14.41,14.41,0,0,1,18.21,0A10.78,10.78,0,0,1,869,32.14a11,11,0,0,1-3.56,8.39A12.85,12.85,0,0,1,856.29,43.85Zm-10.13,90.71V56h20.26v78.52Z" transform="translate(-8.55 -20.58)" fill="#02073e"/><path d="M922.62,134.56q-12.35,0-19.78-6t-7.45-21.38V73H881.94V56h13.45L897.77,35h17.89V56h21.21V73H915.66v34.35c0,3.8.81,6.41,2.45,7.84s4.46,2.14,8.47,2.14h9.82v17.25Z" transform="translate(-8.55 -20.58)" fill="#02073e"/></svg>